<svg width="514" height="157" viewBox="0 0 514 157" fill="none" xmlns="http://www.w3.org/2000/svg">
<path d="M139.604 70.8374C131.431 78.4044 124.201 86.9302 118.071 96.2299C121.578 86.2426 125.139 76.1406 130.144 67.1924C124.439 65.3093 118.603 63.8509 112.683 62.8292C101.152 71.2348 90.4314 82.6434 81.4069 96.2146C84.9754 86.0515 88.5975 75.7585 93.7402 66.7187C94.8329 64.793 96.0326 62.8979 97.2552 61.148C95.3219 61.0564 93.381 60.9952 91.4172 60.9952C86.7707 60.9892 82.1276 61.2443 77.5097 61.7594C65.4133 70.2796 54.1498 82.078 44.7432 96.2299C48.3118 86.0668 51.9338 75.7738 57.0765 66.7339C57.2752 66.3748 57.4968 66.0309 57.7031 65.6794C24.2642 75.1777 0.575684 97.7276 0.575684 119.376C0.575684 147.779 41.2511 155.168 91.4172 155.168C141.583 155.168 182.266 147.779 182.266 119.376C182.266 100.998 165.218 81.9786 139.604 70.8374Z" fill="#FFFBE9"/>
<path d="M95.8491 15.4981C94.5883 17.9739 92.6168 20.0142 91.119 22.3754C89.3922 25.0916 88.3213 28.1724 87.991 31.3741C87.6608 34.5757 88.0803 37.8103 89.2163 40.8218C90.4091 43.8152 92.3243 46.4668 94.7909 48.5401C97.2576 50.6135 100.199 52.0441 103.353 52.7043C101.641 51.9389 100.104 50.8317 98.8364 49.4507C97.5683 48.0697 96.596 46.444 95.9791 44.6735C95.3623 42.903 95.1138 41.0251 95.2492 39.1551C95.3845 37.2851 95.9007 35.4626 96.7661 33.7993C98.4243 30.6281 101.244 28.2211 103.223 25.2409C105.067 22.4182 106.175 19.1794 106.448 15.819C106.769 11.9983 105.89 7.81843 102.971 5.33496C100.434 3.18007 97.0106 2.4847 94.3972 0.383301C97.2246 4.96817 98.4472 10.4012 95.8491 15.4981Z" fill="#FFFBE9"/>
<path d="M129.938 15.4981C128.677 17.9739 126.713 20.0142 125.208 22.3754C123.472 25.0932 122.394 28.1785 122.059 31.3861C121.725 34.5937 122.144 37.835 123.282 40.8524C124.476 43.8493 126.394 46.5034 128.865 48.5771C131.336 50.6508 134.283 52.0793 137.442 52.7348C135.731 51.9688 134.194 50.861 132.927 49.4797C131.66 48.0984 130.688 46.4726 130.072 44.7022C129.456 42.9317 129.208 41.0541 129.344 39.1844C129.48 37.3148 129.997 35.4927 130.862 33.8299C132.513 30.6587 135.34 28.2516 137.319 25.2715C139.16 22.4482 140.266 19.2093 140.536 15.8496C140.865 12.0289 139.978 7.84899 137.067 5.36552C134.53 3.18007 131.099 2.4847 128.493 0.383301C131.313 4.96817 132.543 10.4012 129.938 15.4981Z" fill="#FFFBE9"/>
<path d="M61.7529 15.4981C60.4921 17.9739 58.5283 20.0142 57.0229 22.3754C55.2869 25.0932 54.2089 28.1785 53.8746 31.3861C53.5403 34.5937 53.959 37.835 55.0973 40.8524C56.2951 43.8436 58.2152 46.4915 60.686 48.5597C63.1569 50.6278 66.1015 52.0517 69.2568 52.7043C67.546 51.9382 66.0097 50.8305 64.7425 49.4491C63.4752 48.0678 62.5037 46.442 61.8875 44.6716C61.2714 42.9012 61.0237 41.0235 61.1595 39.1539C61.2954 37.2842 61.812 35.4621 62.6776 33.7993C64.3281 30.6281 67.1478 28.2211 69.1269 25.2409C70.9738 22.4198 72.0826 19.1801 72.3516 15.819C72.6802 11.9983 71.7938 7.81843 68.8824 5.33496C66.3455 3.18007 62.9144 2.4847 60.3087 0.383301C63.1284 4.96817 64.351 10.4012 61.7529 15.4981Z" fill="#FFFBE9"/>
<path d="M266.116 156.751C254.441 156.751 245.46 154.73 239.174 150.689C232.888 146.536 229.745 140.474 229.745 132.504C229.745 128.462 231.092 125.151 233.786 122.569C236.592 119.875 240.184 118.528 244.562 118.528C247.481 118.64 249.502 119.37 250.624 120.717C251.859 122.064 252.476 123.074 252.476 123.748C252.476 123.972 251.971 124.365 250.961 124.926C249.951 125.375 248.94 126.273 247.93 127.621C246.92 128.855 246.415 130.82 246.415 133.514C246.415 138.566 247.986 142.607 251.129 145.638C254.273 148.556 259.268 150.016 266.116 150.016C270.943 150.016 275.04 149.118 278.408 147.321C281.887 145.413 284.525 143 286.322 140.081C288.118 137.05 289.016 133.963 289.016 130.82C289.016 126.105 287.669 122.232 284.975 119.201C282.28 116.17 278.744 113.589 274.366 111.456C270.101 109.211 265.554 107.078 260.727 105.057C255.9 103.037 251.298 100.735 246.92 98.1534C242.654 95.5715 239.118 92.3722 236.312 88.5555C233.505 84.6265 232.046 79.7434 231.934 73.9061C231.821 66.8339 233.337 61.1089 236.48 56.7309C239.623 52.2407 244.001 48.9853 249.614 46.9646C255.227 44.8318 261.457 43.7654 268.305 43.7654C273.356 43.7654 278.295 44.495 283.122 45.9543C288.062 47.4137 292.103 49.7149 295.246 52.8581C298.501 55.889 300.129 59.9302 300.129 64.9817C300.129 69.0229 298.726 72.3906 295.919 75.0848C293.225 77.6666 289.689 78.9576 285.311 78.9576C282.393 78.7331 280.316 78.0034 279.081 76.7686C277.959 75.4215 277.397 74.4112 277.397 73.7377C277.397 73.4009 278.071 73.008 279.418 72.559C280.765 71.9977 282.112 71.0997 283.459 69.8649C284.806 68.5178 285.48 66.5533 285.48 63.9714C285.48 59.7057 283.852 56.4503 280.597 54.2052C277.341 51.8478 273.3 50.6691 268.473 50.6691C261.176 50.6691 255.844 52.4091 252.476 55.889C249.221 59.2567 247.593 63.0734 247.593 67.3391C247.593 71.4926 248.716 74.8602 250.961 77.4421C253.206 80.024 256.574 82.5498 261.064 85.0194C266.116 87.7136 271.223 90.2393 276.387 92.5967C281.551 94.8418 286.322 97.3676 290.7 100.174C295.19 102.98 298.782 106.516 301.476 110.782C304.17 114.936 305.517 120.324 305.517 126.947C305.517 132.672 303.721 137.78 300.129 142.27C296.649 146.76 291.934 150.296 285.985 152.878C280.035 155.46 273.412 156.751 266.116 156.751ZM321.051 153.888C320.04 153.888 319.255 153.496 318.693 152.71C318.244 151.924 318.02 151.082 318.02 150.184C318.132 148.276 318.581 147.209 319.367 146.985C320.265 146.76 321.275 146.648 322.398 146.648C325.99 146.648 328.516 146.031 329.975 144.796C331.434 143.449 332.333 141.821 332.669 139.913C333.118 137.892 333.343 135.815 333.343 133.682V66.834C333.343 64.7011 333.118 62.6805 332.669 60.7721C332.333 58.7515 331.434 57.1238 329.975 55.889C328.516 54.5419 325.99 53.8684 322.398 53.8684C321.275 53.8684 320.265 53.7561 319.367 53.5316C318.581 53.3071 318.132 52.2407 318.02 50.3323C318.02 49.4343 318.244 48.5924 318.693 47.8066C319.255 47.0208 320.04 46.6279 321.051 46.6279C324.643 46.7401 328.067 46.8524 331.322 46.9646C334.578 47.0769 337.889 47.133 341.257 47.133H366.514C368.647 47.133 371.398 47.3014 374.765 47.6382C378.245 47.975 381.894 48.6485 385.71 49.6588C389.639 50.6691 393.344 52.2968 396.824 54.5419C400.303 56.787 403.11 59.7618 405.243 63.4663C407.488 67.1707 408.61 71.8293 408.61 77.4421C408.61 82.7182 407.376 87.489 404.906 91.7548C402.549 96.0205 399.349 99.6688 395.308 102.7C391.379 105.731 386.889 108.088 381.837 109.772C376.898 111.343 371.847 112.129 366.683 112.129C364.213 112.129 361.519 111.961 358.6 111.624C355.682 111.287 352.763 110.558 349.844 109.435V133.682C349.957 135.815 350.181 137.892 350.518 139.913C350.855 141.821 351.753 143.449 353.212 144.796C354.784 146.031 357.309 146.648 360.789 146.648C362.024 146.648 363.035 146.76 363.82 146.985C364.606 147.209 365.055 148.276 365.167 150.184C365.167 151.082 364.887 151.924 364.325 152.71C363.876 153.496 363.147 153.888 362.136 153.888C354.952 153.552 347.936 153.383 341.088 153.383C337.721 153.383 334.409 153.383 331.154 153.383C328.011 153.496 324.643 153.664 321.051 153.888ZM361.8 104.552C364.382 104.552 367.244 104.159 370.387 103.373C373.643 102.475 376.73 101.072 379.648 99.1637C382.679 97.1431 385.149 94.4489 387.057 91.0812C388.966 87.6013 389.92 83.2233 389.92 77.9473C389.92 72.2222 388.797 67.732 386.552 64.4766C384.307 61.1089 381.501 58.6393 378.133 57.0677C374.878 55.4961 371.622 54.4858 368.367 54.0368C365.111 53.5877 362.473 53.3632 360.453 53.3632C357.758 53.3632 355.626 53.6439 354.054 54.2052C352.482 54.7664 351.36 56.0012 350.686 57.9096C350.125 59.7057 349.844 62.5121 349.844 66.3288V102.7C350.967 103.149 352.595 103.598 354.728 104.047C356.86 104.384 359.218 104.552 361.8 104.552ZM403.879 153.888C402.756 153.888 401.97 153.496 401.521 152.71C401.072 151.924 400.848 151.082 400.848 150.184C400.96 148.276 401.409 147.209 402.195 146.985C402.981 146.76 403.935 146.648 405.057 146.648C408.088 146.648 410.389 146.031 411.961 144.796C413.533 143.561 414.767 141.933 415.665 139.913C416.676 137.892 417.63 135.815 418.528 133.682L447.995 63.9714C449.118 61.2773 449.342 59.2567 448.669 57.9096C447.995 56.4503 446.873 55.44 445.301 54.8787C443.729 54.2052 441.989 53.7 440.081 53.3632C438.397 53.0265 437.275 52.7458 436.713 52.5213C436.152 52.1845 435.872 51.1742 435.872 49.4904C435.872 47.5821 436.545 46.5718 437.892 46.4595C439.239 46.235 440.811 46.1227 442.607 46.1227C447.209 46.1227 451.138 46.5718 454.394 47.4698C457.649 48.3678 460.456 50.1078 462.813 52.6897C465.17 55.1593 467.359 58.9199 469.38 63.9714L497.668 133.682C498.454 135.591 499.296 137.555 500.194 139.576C501.092 141.596 502.271 143.28 503.73 144.627C505.302 145.862 507.266 146.536 509.624 146.648C510.859 146.648 511.813 146.76 512.486 146.985C513.272 147.209 513.721 148.276 513.833 150.184C513.833 151.082 513.553 151.924 512.991 152.71C512.542 153.496 511.813 153.888 510.802 153.888C507.21 153.664 504.067 153.496 501.373 153.383C498.679 153.383 495.648 153.383 492.28 153.383C485.657 153.383 478.697 153.552 471.401 153.888C470.278 153.888 469.492 153.496 469.043 152.71C468.594 151.924 468.37 151.082 468.37 150.184C468.482 148.276 468.931 147.209 469.717 146.985C470.503 146.76 471.457 146.648 472.579 146.648C478.08 146.648 481.055 145.638 481.504 143.617C482.065 141.596 481.56 138.285 479.988 133.682L474.263 119.707H432.672C430.988 123.972 429.754 127.059 428.968 128.968C428.294 130.876 427.845 132.111 427.621 132.672C427.508 133.233 427.396 133.57 427.284 133.682C426.049 137.499 425.376 140.362 425.263 142.27C425.263 144.066 426.161 145.245 427.957 145.806C429.866 146.367 433.009 146.648 437.387 146.648C438.622 146.648 439.576 146.76 440.25 146.985C441.035 147.209 441.484 148.276 441.597 150.184C441.597 151.082 441.316 151.924 440.755 152.71C440.306 153.496 439.576 153.888 438.566 153.888C434.973 153.664 431.83 153.496 429.136 153.383C426.554 153.383 423.58 153.383 420.212 153.383C417.967 153.383 416.058 153.383 414.487 153.383C413.027 153.496 411.512 153.552 409.94 153.552C408.369 153.664 406.348 153.776 403.879 153.888ZM435.872 112.466H471.232L454.225 69.1913H453.72L435.872 112.466Z" fill="white"/>
</svg>
